<?xml version="1.0" encoding="utf-8"?>
<!-- Generator: Adobe Illustrator 21.1.0, SVG Export Plug-In . SVG Version: 6.00 Build 0)  -->
<svg version="1.1" id="Layer_1" xmlns="http://www.w3.org/2000/svg" xmlns:xlink="http://www.w3.org/1999/xlink" x="0px" y="0px"
	 viewBox="0 0 48 48" style="enable-background:new 0 0 48 48;" xml:space="preserve">
<path d="M28,28h10.6c0.8,0,1.4-0.6,1.4-1.4v-5.1c0-0.8-0.6-1.4-1.4-1.4H28V9.4C28,8.6,27.4,8,26.6,8h-5.1C20.6,8,20,8.6,20,9.4V20
	H9.4C8.6,20,8,20.6,8,21.4v5.1C8,27.4,8.6,28,9.4,28H20v10.6c0,0.8,0.6,1.4,1.4,1.4h5.1c0.8,0,1.4-0.6,1.4-1.4V28z"/>
</svg>
