<?xml version="1.0" encoding="utf-8"?>
<!-- Generator: Adobe Illustrator 21.1.0, SVG Export Plug-In . SVG Version: 6.00 Build 0)  -->
<svg version="1.1" id="Layer_1" xmlns="http://www.w3.org/2000/svg" xmlns:xlink="http://www.w3.org/1999/xlink" x="0px" y="0px"
	 viewBox="0 0 48 48" style="enable-background:new 0 0 48 48;" xml:space="preserve">
<path d="M29.4,24L41,12.4c0.6-0.6,0.6-1.5,0-2L37.6,7c-0.6-0.6-1.5-0.6-2,0L24,18.6L12.4,7c-0.6-0.6-1.5-0.6-2,0L7,10.4
	c-0.6,0.6-0.6,1.5,0,2L18.6,24L7,35.6c-0.6,0.6-0.6,1.5,0,2l3.4,3.4c0.6,0.6,1.5,0.6,2,0L24,29.4L35.6,41c0.6,0.6,1.5,0.6,2,0
	l3.4-3.4c0.6-0.6,0.6-1.5,0-2L29.4,24z"/>
</svg>
