<?xml version="1.0" encoding="utf-8"?>
<!-- Generator: Adobe Illustrator 22.0.1, SVG Export Plug-In . SVG Version: 6.00 Build 0)  -->
<svg version="1.1" id="Layer_1" xmlns="http://www.w3.org/2000/svg" xmlns:xlink="http://www.w3.org/1999/xlink" x="0px" y="0px"
	 viewBox="0 0 48 48" style="enable-background:new 0 0 48 48;" xml:space="preserve">
<g>
	<path d="M37.3,2H10.7C8.1,2,6,4.1,6,6.7V38c0,2.6,2.1,4.7,4.7,4.7H14V47l6-4l6,4v-4.3h11.3c2.6,0,4.7-2.1,4.7-4.7V6.7
		C42,4.1,39.9,2,37.3,2z M38,38c0,0.4-0.3,0.7-0.7,0.7H26V34H14v4.7h-3.3c-0.4,0-0.7-0.3-0.7-0.7v-6h28V38z M38,28H16V6h21.3
		C37.7,6,38,6.3,38,6.7V28z"/>
</g>
</svg>
