<?xml version="1.0" encoding="utf-8"?>
<!-- Generator: Adobe Illustrator 22.0.1, SVG Export Plug-In . SVG Version: 6.00 Build 0)  -->
<svg version="1.1" id="Layer_1" xmlns="http://www.w3.org/2000/svg" xmlns:xlink="http://www.w3.org/1999/xlink" x="0px" y="0px"
	 viewBox="0 0 48 48" style="enable-background:new 0 0 48 48;" xml:space="preserve">
<path d="M23.9,4c-11,0-20,9-20,20s9,20,20,20c11,0,20-9,20-20S34.9,4,23.9,4z M33.4,29.3c0.3,0.3,0.5,0.7,0.5,1.2
	c0,0.5-0.2,0.9-0.5,1.2l-1.8,1.8c-0.3,0.3-0.8,0.5-1.2,0.5c-0.5,0-0.9-0.2-1.2-0.5l-5.3-5.3l-5.3,5.3c-0.3,0.3-0.8,0.5-1.2,0.5
	c-0.5,0-0.9-0.2-1.2-0.5l-1.8-1.8c-0.3-0.3-0.5-0.7-0.5-1.2c0-0.5,0.2-0.9,0.5-1.2l5.3-5.3l-5.3-5.3c-0.3-0.3-0.5-0.7-0.5-1.2
	c0-0.5,0.2-0.9,0.5-1.2l1.8-1.8c0.3-0.3,0.7-0.5,1.2-0.5c0.5,0,0.9,0.2,1.2,0.5l5.3,5.3l5.3-5.3c0.3-0.3,0.7-0.5,1.2-0.5
	c0.5,0,0.9,0.2,1.2,0.5l1.8,1.8c0.3,0.3,0.5,0.7,0.5,1.2c0,0.5-0.2,0.9-0.5,1.2L28,24L33.4,29.3z"/>
</svg>
