<?xml version="1.0" encoding="utf-8"?>
<!-- Generator: Adobe Illustrator 22.0.1, SVG Export Plug-In . SVG Version: 6.00 Build 0)  -->
<svg version="1.1" id="Layer_1" xmlns="http://www.w3.org/2000/svg" xmlns:xlink="http://www.w3.org/1999/xlink" x="0px" y="0px"
	 viewBox="0 0 48 48" style="enable-background:new 0 0 48 48;" xml:space="preserve">
<path d="M38,22l4-4v24c0,1.1-0.9,2-2,2H8c-1.1,0-2-0.9-2-2V8c0-1.1,0.9-2,2-2h22l-4,4H10v30h28V22z M25.3,22.7L25.3,22.7
	c-0.4-0.4-0.4-1,0-1.4L35.6,11l-2.1-2.1L19.7,22.6v5.6h5.9l13.6-13.5L37,12.4L26.8,22.7C26.4,23,25.7,23,25.3,22.7z M43.6,8.1
	L40,4.5c-0.6-0.6-1.5-0.6-2.1,0l-2.8,2.8l5.7,5.7l2.8-2.8C44.2,9.6,44.2,8.6,43.6,8.1z"/>
</svg>
