<?xml version="1.0" encoding="utf-8"?>
<!-- Generator: Adobe Illustrator 21.1.0, SVG Export Plug-In . SVG Version: 6.00 Build 0)  -->
<svg version="1.1" id="Layer_1" xmlns="http://www.w3.org/2000/svg" xmlns:xlink="http://www.w3.org/1999/xlink" x="0px" y="0px"
	 viewBox="0 0 48 48" style="enable-background:new 0 0 48 48;" xml:space="preserve">
<path d="M44,15c0,0.6-0.4,1-0.8,1H26.8c-0.5,0-0.8-0.5-0.8-1V13c0-0.6,0.4-1,0.8-1h16.3c0.5,0,0.8,0.5,0.8,1V15z M44,23
	c0-0.6-0.4-1-0.8-1H26.8c-0.5,0-0.8,0.5-0.8,1V25c0,0.6,0.4,1,0.8,1h16.3c0.5,0,0.8-0.5,0.8-1V23z M44,33c0-0.6-0.4-1-0.8-1H26.8
	c-0.5,0-0.8,0.5-0.8,1V35c0,0.6,0.4,1,0.8,1h16.3c0.5,0,0.8-0.5,0.8-1V33z M18,28V8.7C18,8.3,17.7,8,17.3,8H8.7C8.3,8,8,8.3,8,8.7
	V28H4.8c-0.7,0-1.1,0.8-0.6,1.3l8.1,10.4c0.3,0.4,1,0.4,1.3,0l8.3-10.4c0.4-0.5,0-1.3-0.6-1.3H18z"/>
</svg>
