<?xml version="1.0" encoding="utf-8"?>
<!-- Generator: Adobe Illustrator 22.0.1, SVG Export Plug-In . SVG Version: 6.00 Build 0)  -->
<svg version="1.1" id="Layer_1" xmlns="http://www.w3.org/2000/svg" xmlns:xlink="http://www.w3.org/1999/xlink" x="0px" y="0px"
	 viewBox="0 0 48 48" style="enable-background:new 0 0 48 48;" xml:space="preserve">
<path d="M27.6,41.9c-5.4,0.5-10.7-1.4-14.5-5.2l-0.7-0.7l4-4l0.4,0.4c2.2,2.2,5.1,3.7,8.2,3.9c7.8,0.4,14.1-6.3,12.9-14.2
	c-0.8-4.9-4.6-9-9.4-10.1c-6.8-1.5-13.2,2.8-14.7,9.2h6.4l-9.8,12.2L1.1,21.2H8C9.4,12.5,16.9,6,25.8,6c10.6,0,19,9.1,17.9,19.9
	C42.8,34.3,36,41.1,27.6,41.9z"/>
<path d="M24,17.4V26l7.4,4.4c0.7,0.4,1.5,0.2,1.9-0.5l0,0c0.4-0.7,0.2-1.5-0.5-1.9L27,24.5v-7.1c0-0.8-0.6-1.4-1.4-1.4h-0.2
	C24.6,16,24,16.6,24,17.4z"/>
</svg>
