<?xml version="1.0" encoding="utf-8"?>
<!-- Generator: Adobe Illustrator 22.0.1, SVG Export Plug-In . SVG Version: 6.00 Build 0)  -->
<svg version="1.1" id="Layer_1" xmlns="http://www.w3.org/2000/svg" xmlns:xlink="http://www.w3.org/1999/xlink" x="0px" y="0px"
	 viewBox="0 0 48 48" style="enable-background:new 0 0 48 48;" xml:space="preserve">
<path d="M8.9,43.4c-0.3,0-0.6-0.1-0.9-0.2c-0.7-0.3-1.1-1-1.1-1.8L7.1,6.5c0-0.8,0.5-1.5,1.3-1.8c0.8-0.3,1.6-0.1,2.2,0.5l24,25.3
	c0.5,0.6,0.7,1.4,0.4,2.1c-0.3,0.7-1,1.2-1.7,1.3l-12.6,0.7L10.2,43C9.8,43.3,9.4,43.4,8.9,43.4z M11.1,11.5l-0.2,25.7l7.7-6.2
	c0.3-0.3,0.7-0.4,1.1-0.4l8.9-0.5L11.1,11.5z M42.5,9.3h-1.7L42,8.1c0.6-0.6,0.6-1.5,0-2.1s-1.5-0.6-2.1,0l-1.2,1.2V5.5
	C38.7,4.7,38,4,37.2,4s-1.5,0.7-1.5,1.5v1.7L34.5,6c-0.6-0.6-1.5-0.6-2.1,0s-0.6,1.5,0,2.1l1.2,1.2h-1.7c-0.8,0-1.5,0.7-1.5,1.5
	s0.7,1.5,1.5,1.5h1.7l-1.2,1.2c-0.6,0.6-0.6,1.5,0,2.1c0.3,0.3,0.7,0.4,1.1,0.4s0.8-0.1,1.1-0.4l1.2-1.2v1.7c0,0.8,0.7,1.5,1.5,1.5
	s1.5-0.7,1.5-1.5v-1.7l1.2,1.2c0.3,0.3,0.7,0.4,1.1,0.4s0.8-0.1,1.1-0.4c0.6-0.6,0.6-1.5,0-2.1l-1.2-1.2h1.7c0.8,0,1.5-0.7,1.5-1.5
	S43.3,9.3,42.5,9.3z M37.2,12.9c-1.1,0-2.1-0.9-2.1-2.1c0-1.1,0.9-2.1,2.1-2.1s2.1,0.9,2.1,2.1C39.3,11.9,38.3,12.9,37.2,12.9z"/>
</svg>
