<?xml version="1.0" encoding="utf-8"?>
<!-- Generator: Adobe Illustrator 22.0.1, SVG Export Plug-In . SVG Version: 6.00 Build 0)  -->
<svg version="1.1" id="Layer_1" xmlns="http://www.w3.org/2000/svg" xmlns:xlink="http://www.w3.org/1999/xlink" x="0px" y="0px"
	 viewBox="0 0 48 48" style="enable-background:new 0 0 48 48;" xml:space="preserve">
<path d="M36,4H6.7C5.2,4,4,5.2,4,6.7v34.7C4,42.8,5.2,44,6.7,44h34.7c1.5,0,2.7-1.2,2.7-2.7V12L36,4z M12,9.5C12,8.7,12.7,8,13.5,8
	h17C31.3,8,32,8.7,32,9.5v9c0,0.8-0.7,1.5-1.5,1.5H28v-8h-4v8H13.5c-0.8,0-1.5-0.7-1.5-1.5V9.5z M38,37.2c0,1-0.8,1.8-1.8,1.8H11.8
	c-1,0-1.8-0.8-1.8-1.8V25.8c0-1,0.8-1.8,1.8-1.8h24.4c1,0,1.8,0.8,1.8,1.8V37.2z"/>
</svg>
