<?xml version="1.0" encoding="utf-8"?>
<!-- Generator: Adobe Illustrator 22.0.1, SVG Export Plug-In . SVG Version: 6.00 Build 0)  -->
<svg version="1.1" id="Layer_1" xmlns="http://www.w3.org/2000/svg" xmlns:xlink="http://www.w3.org/1999/xlink" x="0px" y="0px"
	 viewBox="0 0 48 48" style="enable-background:new 0 0 48 48;" xml:space="preserve">
<path d="M43.4,38.5L30.7,25.8c3.7-5.9,3-13.8-2.2-18.9c-3-3-6.9-4.5-10.8-4.5S9.8,3.8,6.8,6.8c-6,6-6,15.7,0,21.7
	c3,3,6.9,4.5,10.8,4.5c2.8,0,5.6-0.8,8.1-2.3l12.7,12.7c0.7,0.7,1.6,1,2.5,1s1.8-0.3,2.5-1C44.8,42,44.8,39.8,43.4,38.5z M17.7,27
	c-5.2,0-9.3-4.2-9.3-9.3c0-5.2,4.2-9.3,9.3-9.3c5.2,0,9.3,4.2,9.3,9.3C27,22.8,22.8,27,17.7,27z"/>
</svg>
