<?xml version="1.0" encoding="utf-8"?>
<!-- Generator: Adobe Illustrator 22.1.0, SVG Export Plug-In . SVG Version: 6.00 Build 0)  -->
<svg version="1.1" id="Layer_1" xmlns="http://www.w3.org/2000/svg" xmlns:xlink="http://www.w3.org/1999/xlink" x="0px" y="0px"
	 viewBox="0 0 48 48" style="enable-background:new 0 0 48 48;" xml:space="preserve">
<path d="M44.4,8.4c0.1-2.6-2.2-4.9-4.8-4.8L23.9,3.5c-0.5,0-1,0.2-1.4,0.6c0,0-12.7,13.4-17,17.6c-2.8,2.7-1.9,5.1-0.7,6.3L20,43.2
	c0.9,0.9,2.1,1.3,3.2,1.3c1,0,2-0.4,2.8-1.1L44,25.4c0.4-0.4,0.6-0.8,0.6-1.4L44.4,8.4z M29.2,12.6c1.7-1.7,4.4-1.7,6.1,0
	s1.7,4.4,0,6.1c-1.7,1.7-4.4,1.7-6.1,0C27.6,17.1,27.6,14.3,29.2,12.6z M41.5,23.6L23.9,41.3c-0.2,0.2-0.5,0.2-0.7,0.2
	c-0.4,0-0.8-0.2-1.1-0.5L7,25.8c-0.5-0.5-0.6-1.3-0.2-1.7l0.6-0.6h6l11.6,11.6l2.1-2.1l-9.4-9.4h5.8l6.6,6.6l2.1-2.1l-4.4-4.4h13.9
	L41.5,23.6z"/>
</svg>
