<?xml version="1.0" encoding="utf-8"?>
<!-- Generator: Adobe Illustrator 22.0.1, SVG Export Plug-In . SVG Version: 6.00 Build 0)  -->
<svg version="1.1" id="Layer_1" xmlns="http://www.w3.org/2000/svg" xmlns:xlink="http://www.w3.org/1999/xlink" x="0px" y="0px"
	 viewBox="0 0 48 48" style="enable-background:new 0 0 48 48;" xml:space="preserve">
<g>
	<path d="M35.5,8.1L21,8c-0.5,0-0.9,0.2-1.3,0.5L2.6,25.6c-1.5,1.5-1.4,3.9,0.2,5.5l14.1,14.1c1.6,1.6,4.1,1.7,5.5,0.2l17.1-17.1
		C39.8,28,40,27.5,40,27l-0.1-14.5C40,10.1,37.9,8,35.5,8.1z M31.5,22.1c-1.6,1.6-4.1,1.6-5.7,0c-1.6-1.6-1.6-4.1,0-5.7
		s4.1-1.6,5.7,0C33.1,18,33.1,20.6,31.5,22.1z"/>
</g>
</svg>
