<?xml version="1.0" encoding="utf-8"?>
<!-- Generator: Adobe Illustrator 21.1.0, SVG Export Plug-In . SVG Version: 6.00 Build 0)  -->
<svg version="1.1" id="Layer_1" xmlns="http://www.w3.org/2000/svg" xmlns:xlink="http://www.w3.org/1999/xlink" x="0px" y="0px"
	 viewBox="0 0 128.8 25.5" style="enable-background:new 0 0 128.8 25.5;" xml:space="preserve">
<g>
	<path d="M12.1,0.1V4H10c0,0-2-0.3-2,1.6v3.1h4.1l-0.5,4.2H8v11.9H3.3V12.9H0.1V8.7h3.3V5.1c0,0-0.4-2,1.3-3.6c1.7-1.6,4-1.5,4-1.5
		H12.1z"/>
	<path d="M23.6,8.8v2.1c-1.2-1.6-2.9-2.6-4.8-2.6c-3.7,0-6.7,3.2-6.7,8.5c0,5.2,3,8.5,6.7,8.5c1.9,0,3.6-1,4.8-2.6l0,2.1h4.6v-16
		H23.6z M23.3,18.4c0,1.6-1.4,3.1-3.1,3.1c-1.7,0-3.1-1.5-3.1-3.1v-3.1c0-1.6,1.4-3.1,3.1-3.1c1.7,0,3.1,1.5,3.1,3.1V18.4z"/>
	<path d="M65.5,24.9v-2.1c1.2,1.6,2.9,2.6,4.8,2.6c3.7,0,6.7-3.2,6.7-8.5c0-5.2-3-8.5-6.7-8.5c-1.9,0-3.6,1-4.8,2.6l0-10.6l-4.8,0.5
		v24L65.5,24.9z M65.7,15.3c0-1.6,1.4-3.1,3.1-3.1c1.7,0,3.1,1.5,3.1,3.1v3.1c0,1.6-1.4,3.1-3.1,3.1c-1.7,0-3.1-1.5-3.1-3.1V15.3z"
		/>
	<path d="M38.5,21.5c0,0-3.7,0.2-3.7-4.5v-0.3c0-4.7,3.7-4.5,3.7-4.5c2.5,0,3.3,0.8,3.3,0.8L43,9.5c-2-1.5-8-1.7-10.7,0.8
		C30,12.5,30,15.9,30,16.8c0,0.9,0,4.4,2.3,6.5C35,25.8,41,25.6,43,24.1l-1.2-3.5C41.8,20.6,41,21.5,38.5,21.5z"/>
	<path d="M58.7,18.5c0,0,1.9-10-7.3-10.1c-9.2-0.1-7.8,9.1-7.8,9.1c0.2,5.5,2.8,7.2,7.1,7.7c4.4,0.5,7.7-1.2,7.7-1.2l-1-3.2
		c0,0-3.5,1.1-6.3,0.8c-2.8-0.2-2.6-3.1-2.6-3.1H58.7z M48.5,15.3c0,0-0.2-3.6,3-3.6c3.2,0,3,3.6,3,3.6H48.5z"/>
	<path d="M86.4,8.5c-6,0-8,3.6-8,8.4c0,5.1,2.6,8.4,8,8.4c4.4,0,8-3,8-8.4C94.4,12.3,92.1,8.5,86.4,8.5z M89.5,18.4
		c0,1.6-1.4,3.1-3.2,3.1c-1.7,0-3.2-1.5-3.2-3.1v-3.1c0-1.6,1.4-3.1,3.2-3.1c1.7,0,3.2,1.5,3.2,3.1V18.4z"/>
	<path d="M104,8.5c-6,0-8,3.6-8,8.4c0,5.1,2.6,8.4,8,8.4c4.4,0,8-3,8-8.4C112,12.3,109.7,8.5,104,8.5z M107.1,18.4
		c0,1.6-1.4,3.1-3.2,3.1c-1.7,0-3.2-1.5-3.2-3.1v-3.1c0-1.6,1.4-3.1,3.2-3.1c1.7,0,3.2,1.5,3.2,3.1V18.4z"/>
	<polygon points="128.7,24.9 123.5,16.8 128.5,8.7 123.4,8.7 118.5,16 118.5,0.3 113.7,0.8 113.7,24.9 118.5,24.9 118.5,16.7 
		123.8,24.9 	"/>
</g>
</svg>
